<svg width="58" height="58" viewBox="0 0 58 58" fill="none" xmlns="http://www.w3.org/2000/svg">
<path d="M35.5561 43.9586L35.5851 43.98L35.6169 43.9971C36.3617 44.3972 37.1229 44.555 37.781 44.2456C38.4388 43.9364 38.8106 43.2467 38.9827 42.3889C38.9829 42.3879 38.9831 42.3869 38.9833 42.3859L43.7262 20.0411C44.009 18.948 43.8377 18.029 43.2587 17.4641C42.678 16.8976 41.8262 16.8244 41.0604 17.1395L13.1195 27.899L13.1188 27.8993C12.6106 28.0959 12.1971 28.3255 11.8961 28.5865C11.598 28.8451 11.3706 29.1711 11.3344 29.5564C11.2967 29.9579 11.4767 30.3042 11.749 30.565C12.0144 30.8192 12.3866 31.0154 12.8229 31.1619L12.8229 31.162L12.8348 31.1657L19.7501 33.296L22.0978 41.1621L22.1001 41.1697L22.1026 41.1773C22.1699 41.3792 22.2106 41.5486 22.2484 41.7066L22.2554 41.7356L22.2586 41.7489C22.2936 41.8947 22.3388 42.0833 22.4238 42.244C22.5305 42.4459 22.6947 42.6018 22.933 42.6915C23.1387 42.7688 23.3778 42.7879 23.6305 42.7879C24.0793 42.7879 24.4317 42.6889 24.7394 42.5078C25.0187 42.3434 25.242 42.1199 25.4376 41.9242L25.4514 41.9103L25.4567 41.9051L28.6246 38.8301L35.5561 43.9586ZM0.5 29C0.5 13.2468 13.2468 0.5 29 0.5C44.7532 0.5 57.5 13.2468 57.5 29C57.5 44.7532 44.7532 57.5 29 57.5C13.2468 57.5 0.5 44.7532 0.5 29Z" fill="#C9B191" stroke="#F5F5F5"/>
</svg>
